<svg width="60" height="60" viewBox="0 0 60 60" fill="none" xmlns="http://www.w3.org/2000/svg">
<path d="M54 22H6M54 22C55.0609 22 56.0783 21.5786 56.8284 20.8284C57.5786 20.0783 58 19.0609 58 18V10C58 8.93913 57.5786 7.92172 56.8284 7.17157C56.0783 6.42143 55.0609 6 54 6H6C4.93913 6 3.92172 6.42143 3.17157 7.17157C2.42143 7.92172 2 8.93913 2 10V18C2 19.0609 2.42143 20.0783 3.17157 20.8284C3.92172 21.5786 4.93913 22 6 22M54 22C55.0609 22 56.0783 22.4214 56.8284 23.1716C57.5786 23.9217 58 24.9391 58 26V34C58 35.0609 57.5786 36.0783 56.8284 36.8284C56.0783 37.5786 55.0609 38 54 38M6 22C4.93913 22 3.92172 22.4214 3.17157 23.1716C2.42143 23.9217 2 24.9391 2 26V34C2 35.0609 2.42143 36.0783 3.17157 36.8284C3.92172 37.5786 4.93913 38 6 38M54 38H6M54 38C55.0609 38 56.0783 38.4214 56.8284 39.1716C57.5786 39.9217 58 40.9391 58 42V50C58 51.0609 57.5786 52.0783 56.8284 52.8284C56.0783 53.5786 55.0609 54 54 54H6C4.93913 54 3.92172 53.5786 3.17157 52.8284C2.42143 52.0783 2 51.0609 2 50V42C2 40.9391 2.42143 39.9217 3.17157 39.1716C3.92172 38.4214 4.93913 38 6 38M8 14H20M8 30H20M8 46H20" stroke="#FFBA52"/>
</svg>
