<svg width="20" height="20" viewBox="0 0 20 20" fill="none" xmlns="http://www.w3.org/2000/svg">
<path d="M3.33333 2.5C3.11232 2.5 2.90036 2.5878 2.74408 2.74408C2.5878 2.90036 2.5 3.11232 2.5 3.33333V16.6667C2.5 16.8877 2.5878 17.0996 2.74408 17.2559C2.90036 17.4122 3.11232 17.5 3.33333 17.5H11.6667C11.8877 17.5 12.0996 17.4122 12.2559 17.2559C12.4122 17.0996 12.5 16.8877 12.5 16.6667V12.7475L13.3333 16.6667C13.3793 16.8828 13.5093 17.0718 13.6946 17.1922C13.88 17.3125 14.1055 17.3543 14.3217 17.3083L17.5817 16.615C17.7978 16.569 17.9868 16.439 18.1072 16.2537C18.2275 16.0684 18.2693 15.8428 18.2233 15.6267L15.7983 4.215C15.7523 3.99886 15.6224 3.80984 15.437 3.68951C15.2517 3.56918 15.0261 3.52739 14.81 3.57333L12.4933 4.065C12.4685 3.86319 12.3708 3.67741 12.2185 3.54265C12.0663 3.40789 11.87 3.33344 11.6667 3.33333H8.33333C8.33333 3.11232 8.24554 2.90036 8.08926 2.74408C7.93298 2.5878 7.72101 2.5 7.5 2.5H3.33333ZM8.33333 5H10.8333V11.6667H8.33333V5ZM8.33333 15.8333V13.3333H10.8333V15.8333H8.33333ZM6.66667 4.16667V12.5H4.16667V4.16667H6.66667ZM6.66667 14.1667V15.8333H4.16667V14.1667H6.66667ZM14.4433 13.875L16.0733 13.5283L16.42 15.1583L14.79 15.505L14.4433 13.875ZM14.0967 12.2442L12.7108 5.72333L14.3408 5.37667L15.7275 11.8983L14.0967 12.2442Z" fill="white"/>
</svg>
