<svg width="24" height="24" viewBox="0 0 24 24" fill="none" xmlns="http://www.w3.org/2000/svg">
<path d="M21.0002 16H4.89018C4.40318 16 4.04118 16.172 3.75718 16.451C3.28818 16.911 3.12018 17.591 3.04618 18.243C2.96018 18.998 2.99118 19.689 3.20118 20.438C3.43718 21.273 4.02118 22 4.88618 22H21.0002M19.4062 22C17.8672 20.588 17.2362 18.142 19.4062 16M11.8182 6.5C11.8182 4 9.10918 3 9.10918 3M11.8182 6.921C11.8182 6.921 5.85918 3.856 5.85918 8.908C5.86018 13.961 8.57018 16 9.65118 16C10.5132 16 11.0212 14.991 11.8182 14.991C12.6152 14.991 12.9002 16 13.9842 16C15.0642 16 17.7762 13.96 17.7762 8.908C17.7762 3.856 11.8182 6.921 11.8182 6.921ZM12.3592 6C12.3592 2.01 14.3102 3 15.2862 2C16.2612 4.5 14.9562 5.003 12.3592 6Z" stroke="#FFBA52" stroke-width="1.5" stroke-linecap="round" stroke-linejoin="round"/>
</svg>
