<svg width="20" height="20" viewBox="0 0 20 20" fill="none" xmlns="http://www.w3.org/2000/svg">
<path d="M10.3825 1.38391C10.2716 1.29744 10.135 1.25049 9.99438 1.25049C9.85375 1.25049 9.71715 1.29744 9.60625 1.38391L0.625 8.38703L1.40188 9.36953L2.5 8.51328V16.2502C2.50066 16.5815 2.63257 16.899 2.86685 17.1333C3.10112 17.3676 3.41868 17.4995 3.75 17.5002H16.25C16.5813 17.4995 16.8989 17.3676 17.1332 17.1333C17.3674 16.899 17.4993 16.5815 17.5 16.2502V8.51891L18.5981 9.37516L19.375 8.39266L10.3825 1.38391ZM11.25 16.2502H8.75V11.2502H11.25V16.2502ZM12.5 16.2502V11.2502C12.5 10.9186 12.3683 10.6007 12.1339 10.3663C11.8995 10.1319 11.5815 10.0002 11.25 10.0002H8.75C8.41848 10.0002 8.10054 10.1319 7.86612 10.3663C7.6317 10.6007 7.5 10.9186 7.5 11.2502V16.2502H3.75V7.53891L10 2.67016L16.25 7.54516V16.2502H12.5Z" fill="#FFBA52"/>
</svg>
