<svg width="60" height="60" viewBox="0 0 60 60" fill="none" xmlns="http://www.w3.org/2000/svg">
<path d="M25.1248 26.5173L7.44983 44.1923C6.98495 44.6567 6.61615 45.2082 6.36453 45.8151C6.11291 46.4221 5.9834 47.0728 5.9834 47.7298C5.9834 48.3869 6.11291 49.0376 6.36453 49.6445C6.61615 50.2515 6.98495 50.803 7.44983 51.2673C8.38747 52.2047 9.65901 52.7313 10.9848 52.7313C12.3107 52.7313 13.5822 52.2047 14.5198 51.2673L32.1948 33.5873M42.9823 34.4998L52.6773 44.1948C53.6147 45.1325 54.1413 46.404 54.1413 47.7298C54.1413 49.0557 53.6147 50.3272 52.6773 51.2648C51.7397 52.2022 50.4682 52.7288 49.1423 52.7288C47.8165 52.7288 46.545 52.2022 45.6073 51.2648L30.0848 35.7448M16.8323 14.7598L11.5248 16.5248L6.22483 7.68734L9.75983 4.15234L18.5998 9.45484L16.8323 14.7598ZM16.8323 14.7598L23.9073 21.8348" stroke="#FFBA52" stroke-width="1.5" stroke-linecap="round" stroke-linejoin="round"/>
<path d="M25.1247 26.5169C23.0147 21.1344 23.4272 14.0719 27.7772 9.72191C32.1272 5.37191 40.1522 4.41941 44.5697 7.07191L36.9697 14.6719L36.2622 22.4494L44.0397 21.7444L51.6397 14.1419C54.2947 18.5619 53.3397 26.5869 48.9897 30.9344C44.6397 35.2844 37.5797 35.6969 32.1972 33.5869" stroke="#FFBA52" stroke-width="1.5" stroke-linecap="round" stroke-linejoin="round"/>
</svg>
