<svg width="20" height="20" viewBox="0 0 20 20" fill="none" xmlns="http://www.w3.org/2000/svg">
<path d="M10 1.6665C9.17591 1.6665 8.37033 1.91087 7.68512 2.36871C6.99992 2.82655 6.46587 3.4773 6.1505 4.23866C5.83514 5.00001 5.75262 5.83779 5.91339 6.64605C6.07417 7.4543 6.471 8.19673 7.05372 8.77945C7.63644 9.36217 8.37887 9.759 9.18712 9.91978C9.99538 10.0805 10.8332 9.99803 11.5945 9.68267C12.3559 9.3673 13.0066 8.83325 13.4645 8.14805C13.9223 7.46284 14.1667 6.65726 14.1667 5.83317C14.1667 4.7281 13.7277 3.66829 12.9463 2.88689C12.1649 2.10549 11.1051 1.6665 10 1.6665ZM10 8.33317C9.50555 8.33317 9.0222 8.18655 8.61107 7.91184C8.19995 7.63714 7.87952 7.24669 7.6903 6.78988C7.50108 6.33306 7.45157 5.8304 7.54804 5.34544C7.6445 4.86049 7.8826 4.41504 8.23223 4.0654C8.58186 3.71577 9.02732 3.47767 9.51227 3.38121C9.99723 3.28474 10.4999 3.33425 10.9567 3.52347C11.4135 3.71269 11.804 4.03312 12.0787 4.44424C12.3534 4.85537 12.5 5.33872 12.5 5.83317C12.5 6.49621 12.2366 7.1321 11.7678 7.60094C11.2989 8.06978 10.663 8.33317 10 8.33317ZM17.5 17.4998V16.6665C17.5 15.1194 16.8854 13.6357 15.7915 12.5417C14.6975 11.4478 13.2138 10.8332 11.6667 10.8332H8.33333C6.78624 10.8332 5.30251 11.4478 4.20854 12.5417C3.11458 13.6357 2.5 15.1194 2.5 16.6665V17.4998H4.16667V16.6665C4.16667 15.5614 4.60565 14.5016 5.38705 13.7202C6.16846 12.9388 7.22826 12.4998 8.33333 12.4998H11.6667C12.7717 12.4998 13.8315 12.9388 14.6129 13.7202C15.3943 14.5016 15.8333 15.5614 15.8333 16.6665V17.4998H17.5Z" fill="#282828"/>
</svg>
