<svg width="20" height="20" viewBox="0 0 20 20" fill="none" xmlns="http://www.w3.org/2000/svg">
<path d="M16.6665 4.99984C17.1498 4.99984 17.5415 5.1665 17.8498 5.4915C18.1665 5.83317 18.3332 6.20817 18.3332 6.6665V15.8332C18.3332 16.2915 18.1665 16.6665 17.8498 17.0082C17.5415 17.3332 17.1498 17.4998 16.6665 17.4998H3.33317C2.84984 17.4998 2.45817 17.3332 2.14984 17.0082C1.83317 16.6665 1.6665 16.2915 1.6665 15.8332V6.6665C1.6665 6.20817 1.83317 5.83317 2.14984 5.4915C2.45817 5.1665 2.84984 4.99984 3.33317 4.99984H6.6665V3.33317C6.6665 2.84984 6.83317 2.45817 7.14984 2.14984C7.45817 1.83317 7.84984 1.6665 8.33317 1.6665H11.6665C12.1498 1.6665 12.5415 1.83317 12.8498 2.14984C13.1665 2.45817 13.3332 2.84984 13.3332 3.33317V4.99984H16.6665ZM3.33317 6.6665V15.8332H16.6665V6.6665H3.33317ZM11.6665 4.99984V3.33317H8.33317V4.99984H11.6665Z" fill="white"/>
</svg>
